<svg width="110" height="36" viewBox="0 0 110 36" fill="none" xmlns="http://www.w3.org/2000/svg">
<path d="M7.48926 35.1841H0.848633L15.668 0.272034H22.626L37.7627 35.1841H30.8047L26.8252 25.6627H15.2285L17.4502 20.0474H24.4814L18.9883 6.93707L7.48926 35.1841ZM55.707 29.5689C62.9499 29.5689 66.5713 25.3046 66.5713 16.7759C66.5713 9.51683 62.9499 5.88727 55.707 5.88727H48.5049V29.5689H55.707ZM42.0352 35.1841V0.272034H55.707C67.263 0.272034 73.041 5.77334 73.041 16.7759C73.041 29.0481 67.263 35.1841 55.707 35.1841H42.0352ZM92.2305 29.5689C99.4733 29.5689 103.095 25.3046 103.095 16.7759C103.095 9.51683 99.4733 5.88727 92.2305 5.88727H85.0283V29.5689H92.2305ZM78.5586 35.1841V0.272034H92.2305C103.786 0.272034 109.564 5.77334 109.564 16.7759C109.564 29.0481 103.786 35.1841 92.2305 35.1841H78.5586Z" fill="url(#paint0_linear_460_14)"/>
<defs>
<linearGradient id="paint0_linear_460_14" x1="31.532" y1="-7.44086" x2="80.1794" y2="50.7928" gradientUnits="userSpaceOnUse">
<stop stop-color="#C02856"/>
<stop offset="0.078125" stop-color="#C21675"/>
<stop offset="0.697967" stop-color="#552EA8"/>
<stop offset="1" stop-color="#05B3C6"/>
</linearGradient>
</defs>
</svg>
