<svg width="80" height="46" viewBox="0 0 80 46" fill="none" xmlns="http://www.w3.org/2000/svg">
<g clip-path="url(#clip0_406_1288)">
<path d="M24.7308 11.6394H6.22626L7.55932 8.01111H26.0639L24.7308 11.6394ZM24.0643 13.4535H5.5514L4.21834 17.0818H22.7229L24.0643 13.4535ZM22.0647 18.8794H3.55181L2.21875 22.5077H20.7066L22.0647 18.8794Z" fill="#F20000"/>
<path d="M67.8449 30.3087H71.1632C71.6348 30.3629 72.113 30.3046 72.5557 30.1391C72.9984 29.9736 73.392 29.7059 73.7016 29.3597C74.1568 28.787 74.3861 28.0777 74.3487 27.3579C74.3799 26.8999 74.2923 26.4415 74.094 26.024C73.8956 25.6064 73.5927 25.2427 73.2122 24.9654C72.5962 24.5779 71.8637 24.3984 71.13 24.455H67.8449V30.3087ZM63.4896 33.8417V12.7714H77.7499L76.4973 16.3044H67.8449V20.9698H71.3705C74.216 20.9698 75.6926 21.6238 76.713 22.4612C77.4425 23.0822 78.0163 23.854 78.3913 24.7186C78.7662 25.5833 78.9327 26.5183 78.8782 27.4536C78.9342 28.4608 78.7275 29.4655 78.277 30.3764C77.8264 31.2873 77.1462 32.0755 76.2982 32.6694C74.9294 33.5785 73.4943 33.8337 70.5742 33.8337L63.4896 33.8417ZM50.8636 33.8417V16.2964H44.5256V12.7714H62.1208L60.8682 16.3044H55.2603V33.8497L50.8636 33.8417ZM33.3015 21.2091H35.7902C36.2992 21.2425 36.8106 21.2049 37.3084 21.0974C37.826 20.9385 38.2722 20.6151 38.5736 20.1804C38.8751 19.7457 39.014 19.2254 38.9675 18.7049C39.0366 18.1877 38.9058 17.664 38.6 17.2333C38.2942 16.8026 37.8346 16.4948 37.3084 16.3682C36.7649 16.2469 36.2065 16.1986 35.6492 16.2246H33.3015V21.2091ZM33.3015 24.8537V30.3805H36.3378C37.1745 30.4724 38.0158 30.2495 38.6855 29.7584C38.994 29.4836 39.2358 29.1467 39.3935 28.7717C39.5513 28.3968 39.6211 27.993 39.598 27.5892C39.6112 26.944 39.4075 26.3119 39.0173 25.7868C38.3702 24.9893 37.5738 24.8378 36.2133 24.8378L33.3015 24.8537ZM40.3197 22.6287V22.7004C41.0593 22.9742 41.7505 23.3562 42.3687 23.8329C42.9937 24.3315 43.4876 24.9646 43.8104 25.681C44.1333 26.3973 44.276 27.1768 44.227 27.9561C44.227 30.8351 42.6342 32.9166 40.0211 33.5386C38.9794 33.7834 37.9066 33.8828 36.8355 33.8337H28.9463V12.7714H35.9645C37.0791 12.7322 38.1944 12.8314 39.2827 13.0665C41.8212 13.7204 43.4887 15.4032 43.4887 18.0589C43.5094 18.6921 43.3958 19.3227 43.1548 19.9123C42.9137 20.5018 42.5503 21.0381 42.0867 21.4882C41.5943 21.9688 41.0079 22.351 40.3612 22.6127L40.3197 22.6287Z" fill="#FDFDFD"/>
<g filter="url(#filter0_d_406_1288)">
<path d="M30.2599 38.7006H30.9622C31.15 38.7006 31.3234 38.7317 31.4824 38.7938C31.6414 38.8545 31.7794 38.9427 31.8964 39.0583C32.0149 39.1725 32.1067 39.3105 32.1717 39.4723C32.2367 39.6327 32.2693 39.8119 32.2693 40.0099C32.2693 40.2035 32.2367 40.3798 32.1717 40.5388C32.1067 40.6963 32.0149 40.8314 31.8964 40.9441C31.7794 41.0568 31.6414 41.1435 31.4824 41.2042C31.3234 41.2649 31.15 41.2953 30.9622 41.2953H30.2599C30.0706 41.2953 29.8964 41.2649 29.7375 41.2042C29.5785 41.1435 29.4398 41.0576 29.3213 40.9463C29.2028 40.8336 29.1103 40.6985 29.0438 40.5409C28.9788 40.3834 28.9463 40.2079 28.9463 40.0142C28.9463 39.8162 28.9788 39.637 29.0438 39.4766C29.1103 39.3148 29.2028 39.1761 29.3213 39.0605C29.4398 38.9449 29.5785 38.856 29.7375 38.7938C29.8964 38.7317 30.0706 38.7006 30.2599 38.7006ZM30.2599 39.2209C30.1211 39.2209 29.999 39.2512 29.8935 39.3119C29.788 39.3726 29.7064 39.4622 29.6486 39.5807C29.5908 39.6977 29.5619 39.8423 29.5619 40.0142C29.5619 40.1385 29.5785 40.2483 29.6117 40.3437C29.6464 40.4376 29.6948 40.5164 29.757 40.58C29.8191 40.6435 29.8928 40.692 29.9781 40.7252C30.0633 40.7584 30.1573 40.7751 30.2599 40.7751H30.9665C31.1038 40.7751 31.2237 40.7454 31.3263 40.6862C31.4304 40.6269 31.5113 40.5402 31.5691 40.4261C31.6269 40.3119 31.6558 40.1732 31.6558 40.0099C31.6558 39.8813 31.6392 39.7678 31.606 39.6696C31.5727 39.5713 31.5258 39.4889 31.4651 39.4225C31.4044 39.356 31.3314 39.3061 31.2461 39.2729C31.1623 39.2382 31.0691 39.2209 30.9665 39.2209H30.2599ZM30.9232 38.2866V41.7028H30.2989V38.2866H30.9232Z" fill="url(#paint0_linear_406_1288)" shape-rendering="crispEdges"/>
<path d="M32.5575 40.4239V40.3784C32.5575 40.2064 32.5821 40.0482 32.6312 39.9037C32.6804 39.7577 32.7519 39.6313 32.8458 39.5243C32.9398 39.4174 33.0554 39.3343 33.1927 39.2751C33.3299 39.2144 33.4875 39.184 33.6652 39.184C33.8429 39.184 34.0012 39.2144 34.1399 39.2751C34.2786 39.3343 34.395 39.4174 34.4889 39.5243C34.5843 39.6313 34.6565 39.7577 34.7057 39.9037C34.7548 40.0482 34.7794 40.2064 34.7794 40.3784V40.4239C34.7794 40.5944 34.7548 40.7527 34.7057 40.8986C34.6565 41.0431 34.5843 41.1696 34.4889 41.2779C34.395 41.3849 34.2794 41.468 34.1421 41.5272C34.0048 41.5865 33.8473 41.6161 33.6695 41.6161C33.4918 41.6161 33.3336 41.5865 33.1948 41.5272C33.0575 41.468 32.9412 41.3849 32.8458 41.2779C32.7519 41.1696 32.6804 41.0431 32.6312 40.8986C32.5821 40.7527 32.5575 40.5944 32.5575 40.4239ZM33.1818 40.3784V40.4239C33.1818 40.5222 33.1905 40.6139 33.2078 40.6992C33.2252 40.7844 33.2526 40.8596 33.2902 40.9246C33.3292 40.9882 33.3798 41.0381 33.4419 41.0742C33.5041 41.1103 33.5799 41.1284 33.6695 41.1284C33.7562 41.1284 33.8307 41.1103 33.8928 41.0742C33.9549 41.0381 34.0048 40.9882 34.0424 40.9246C34.0799 40.8596 34.1074 40.7844 34.1247 40.6992C34.1435 40.6139 34.1529 40.5222 34.1529 40.4239V40.3784C34.1529 40.283 34.1435 40.1934 34.1247 40.1096C34.1074 40.0243 34.0792 39.9492 34.0402 39.8842C34.0026 39.8177 33.9528 39.7657 33.8906 39.7281C33.8285 39.6905 33.7534 39.6717 33.6652 39.6717C33.5771 39.6717 33.5019 39.6905 33.4398 39.7281C33.3791 39.7657 33.3292 39.8177 33.2902 39.8842C33.2526 39.9492 33.2252 40.0243 33.2078 40.1096C33.1905 40.1934 33.1818 40.283 33.1818 40.3784Z" fill="url(#paint1_linear_406_1288)" shape-rendering="crispEdges"/>
<path d="M35.7873 39.6782V42.4745H35.163V39.2274H35.7418L35.7873 39.6782ZM37.2721 40.374V40.4196C37.2721 40.5901 37.2519 40.7483 37.2114 40.8943C37.1724 41.0402 37.1146 41.1674 37.038 41.2758C36.9614 41.3827 36.8661 41.4665 36.7519 41.5272C36.6392 41.5865 36.5091 41.6161 36.3617 41.6161C36.2187 41.6161 36.0944 41.5872 35.9889 41.5294C35.8834 41.4716 35.7945 41.3907 35.7223 41.2866C35.6515 41.1811 35.5944 41.059 35.551 40.9203C35.5077 40.7816 35.4744 40.6327 35.4513 40.4738V40.3545C35.4744 40.184 35.5077 40.0279 35.551 39.8863C35.5944 39.7433 35.6515 39.6197 35.7223 39.5157C35.7945 39.4102 35.8827 39.3285 35.9867 39.2707C36.0922 39.2129 36.2158 39.184 36.3574 39.184C36.5062 39.184 36.637 39.2122 36.7497 39.2686C36.8639 39.3249 36.9593 39.4058 37.0359 39.5113C37.1139 39.6168 37.1724 39.7425 37.2114 39.8885C37.2519 40.0344 37.2721 40.1963 37.2721 40.374ZM36.6457 40.4196V40.374C36.6457 40.2743 36.637 40.1826 36.6197 40.0988C36.6038 40.0135 36.5778 39.9391 36.5416 39.8755C36.507 39.8119 36.4607 39.7628 36.4029 39.7281C36.3465 39.692 36.2779 39.6739 36.197 39.6739C36.1117 39.6739 36.0387 39.6876 35.9781 39.7151C35.9188 39.7425 35.8704 39.7823 35.8328 39.8343C35.7952 39.8863 35.7671 39.9485 35.7483 40.0207C35.7295 40.093 35.7179 40.1746 35.7136 40.2657V40.567C35.7208 40.6739 35.7411 40.77 35.7743 40.8553C35.8075 40.9391 35.8588 41.0055 35.9282 41.0547C35.9976 41.1038 36.0886 41.1284 36.2013 41.1284C36.2837 41.1284 36.3531 41.1103 36.4094 41.0742C36.4658 41.0366 36.5113 40.9853 36.546 40.9203C36.5821 40.8553 36.6074 40.7801 36.6218 40.6948C36.6377 40.6096 36.6457 40.5178 36.6457 40.4196Z" fill="url(#paint2_linear_406_1288)" shape-rendering="crispEdges"/>
<path d="M39.0864 40.8553L39.702 39.2274H40.2114L39.2967 41.5727H38.8762L37.9658 39.2274H38.4752L39.0864 40.8553ZM38.3256 39.2274V41.5727H37.7013V39.2274H38.3256ZM39.8624 41.5727V39.2274H40.4867V41.5727H39.8624Z" fill="url(#paint3_linear_406_1288)" shape-rendering="crispEdges"/>
<path d="M41.7288 41.3083L42.3509 39.2274H43.0207L42.0777 41.9261C42.0575 41.9853 42.0301 42.0489 41.9954 42.1168C41.9621 42.1847 41.9166 42.249 41.8588 42.3097C41.8025 42.3719 41.7309 42.4224 41.6442 42.4615C41.559 42.5005 41.4542 42.52 41.3299 42.52C41.2707 42.52 41.2222 42.5164 41.1847 42.5091C41.1471 42.5019 41.1023 42.4918 41.0503 42.4788V42.0214C41.0662 42.0214 41.0828 42.0214 41.1001 42.0214C41.1175 42.0229 41.1341 42.0236 41.15 42.0236C41.2324 42.0236 41.2996 42.0142 41.3516 41.9954C41.4036 41.9766 41.4455 41.9477 41.4773 41.9087C41.5091 41.8711 41.5344 41.822 41.5532 41.7613L41.7288 41.3083ZM41.4686 39.2274L41.978 40.9268L42.0669 41.5879L41.642 41.6334L40.7988 39.2274H41.4686Z" fill="url(#paint4_linear_406_1288)" shape-rendering="crispEdges"/>
<path d="M44.7569 39.2274V39.7173H43.6037V39.2274H44.7569ZM45.2143 39.2274V41.5727H44.59V39.2274H45.2143ZM43.4477 39.2274H44.0611L43.9983 40.4109C43.9896 40.58 43.9715 40.7288 43.9441 40.8574C43.9166 40.986 43.8798 41.0959 43.8335 41.1869C43.7887 41.2779 43.7345 41.3524 43.6709 41.4102C43.6088 41.4665 43.5358 41.5077 43.452 41.5337C43.3696 41.5597 43.2786 41.5727 43.1789 41.5727H42.9881L42.9816 41.0807L43.0618 41.072C43.1081 41.0677 43.1485 41.0547 43.1832 41.033C43.2194 41.0099 43.2497 40.9774 43.2743 40.9355C43.3003 40.8921 43.322 40.8379 43.3393 40.7729C43.3566 40.7064 43.3704 40.6284 43.3805 40.5388C43.392 40.4492 43.4 40.3459 43.4043 40.2288L43.4477 39.2274Z" fill="url(#paint5_linear_406_1288)" shape-rendering="crispEdges"/>
<path d="M46.9636 41.0438V39.999C46.9636 39.9239 46.9513 39.8596 46.9267 39.8061C46.9021 39.7512 46.8638 39.7086 46.8118 39.6782C46.7612 39.6479 46.6955 39.6327 46.6146 39.6327C46.5452 39.6327 46.4852 39.645 46.4347 39.6696C46.3841 39.6927 46.3451 39.7266 46.3176 39.7714C46.2901 39.8148 46.2764 39.8661 46.2764 39.9253H45.6521C45.6521 39.8256 45.6753 39.731 45.7215 39.6414C45.7678 39.5518 45.8349 39.473 45.9231 39.4051C46.0112 39.3357 46.116 39.2816 46.2374 39.2425C46.3602 39.2035 46.4975 39.184 46.6493 39.184C46.8313 39.184 46.9932 39.2144 47.1348 39.2751C47.2764 39.3357 47.3877 39.4268 47.4686 39.5482C47.551 39.6696 47.5922 39.8213 47.5922 40.0034V41.007C47.5922 41.1356 47.6001 41.2411 47.616 41.3235C47.6319 41.4044 47.655 41.4752 47.6854 41.5359V41.5727H47.0546C47.0243 41.5092 47.0011 41.4297 46.9852 41.3343C46.9708 41.2375 46.9636 41.1407 46.9636 41.0438ZM47.0459 40.1443L47.0503 40.4976H46.7013C46.6189 40.4976 46.5474 40.507 46.4867 40.5258C46.426 40.5446 46.3761 40.5713 46.3371 40.606C46.2981 40.6392 46.2692 40.6782 46.2504 40.723C46.2331 40.7678 46.2244 40.817 46.2244 40.8704C46.2244 40.9239 46.2367 40.9723 46.2612 41.0157C46.2858 41.0576 46.3212 41.0908 46.3675 41.1154C46.4137 41.1385 46.4679 41.15 46.53 41.15C46.624 41.15 46.7056 41.1313 46.775 41.0937C46.8443 41.0561 46.8978 41.0099 46.9354 40.955C46.9744 40.9 46.9946 40.848 46.9961 40.7989L47.1608 41.0633C47.1377 41.1226 47.1059 41.184 47.0654 41.2476C47.0264 41.3112 46.9766 41.3711 46.9159 41.4275C46.8552 41.4824 46.7822 41.5279 46.6969 41.5641C46.6117 41.5987 46.5105 41.6161 46.3935 41.6161C46.2446 41.6161 46.1095 41.5865 45.9881 41.5272C45.8682 41.4665 45.7728 41.3834 45.702 41.2779C45.6326 41.171 45.598 41.0496 45.598 40.9138C45.598 40.7909 45.6211 40.6818 45.6673 40.5865C45.7136 40.4911 45.7815 40.4109 45.8711 40.3459C45.9621 40.2794 46.0756 40.2295 46.2114 40.1963C46.3472 40.1616 46.5047 40.1443 46.6839 40.1443H47.0459Z" fill="url(#paint6_linear_406_1288)" shape-rendering="crispEdges"/>
<path d="M50.7569 39.2274V39.7173H49.6211V39.2274H50.7569ZM49.801 39.2274V41.5727H49.1767V39.2274H49.801ZM51.2121 39.2274V41.5727H50.5857V39.2274H51.2121Z" fill="url(#paint7_linear_406_1288)" shape-rendering="crispEdges"/>
<path d="M52.7728 41.6161C52.5907 41.6161 52.4274 41.5872 52.2829 41.5294C52.1384 41.4701 52.0156 41.3885 51.9144 41.2844C51.8147 41.1804 51.7381 41.0597 51.6846 40.9224C51.6312 40.7837 51.6044 40.6363 51.6044 40.4803V40.3935C51.6044 40.2158 51.6297 40.0532 51.6803 39.9058C51.7309 39.7584 51.8031 39.6305 51.8971 39.5222C51.9924 39.4138 52.108 39.3307 52.2439 39.2729C52.3797 39.2136 52.5329 39.184 52.7034 39.184C52.8696 39.184 53.017 39.2115 53.1456 39.2664C53.2742 39.3213 53.3819 39.3993 53.4686 39.5005C53.5567 39.6016 53.6232 39.723 53.668 39.8646C53.7128 40.0048 53.7352 40.1609 53.7352 40.3329V40.593H51.871V40.1768H53.1218V40.1291C53.1218 40.0424 53.1059 39.9651 53.0741 39.8972C53.0437 39.8278 52.9975 39.7729 52.9354 39.7324C52.8732 39.692 52.7937 39.6717 52.6969 39.6717C52.6145 39.6717 52.5437 39.6898 52.4845 39.7259C52.4252 39.762 52.3768 39.8126 52.3393 39.8777C52.3031 39.9427 52.2757 40.0193 52.2569 40.1074C52.2395 40.1941 52.2309 40.2895 52.2309 40.3935V40.4803C52.2309 40.5742 52.2439 40.6609 52.2699 40.7404C52.2973 40.8198 52.3356 40.8885 52.3848 40.9463C52.4354 41.0041 52.496 41.0489 52.5669 41.0807C52.6391 41.1125 52.7208 41.1284 52.8118 41.1284C52.9245 41.1284 53.0293 41.1067 53.1261 41.0633C53.2244 41.0185 53.3089 40.9514 53.3797 40.8618L53.6832 41.1912C53.634 41.262 53.5669 41.33 53.4816 41.395C53.3978 41.46 53.2966 41.5135 53.1781 41.5554C53.0596 41.5959 52.9245 41.6161 52.7728 41.6161Z" fill="url(#paint8_linear_406_1288)" shape-rendering="crispEdges"/>
<path d="M54.715 39.6782V42.4745H54.0907V39.2274H54.6694L54.715 39.6782ZM56.1998 40.374V40.4196C56.1998 40.5901 56.1796 40.7483 56.1391 40.8943C56.1001 41.0402 56.0423 41.1674 55.9657 41.2758C55.8891 41.3827 55.7937 41.4665 55.6796 41.5272C55.5668 41.5865 55.4368 41.6161 55.2894 41.6161C55.1463 41.6161 55.022 41.5872 54.9166 41.5294C54.8111 41.4716 54.7222 41.3907 54.6499 41.2866C54.5791 41.1811 54.5221 41.059 54.4787 40.9203C54.4353 40.7816 54.4021 40.6327 54.379 40.4738V40.3545C54.4021 40.184 54.4353 40.0279 54.4787 39.8863C54.5221 39.7433 54.5791 39.6197 54.6499 39.5157C54.7222 39.4102 54.8103 39.3285 54.9144 39.2707C55.0199 39.2129 55.1434 39.184 55.2851 39.184C55.4339 39.184 55.5647 39.2122 55.6774 39.2686C55.7916 39.3249 55.8869 39.4058 55.9635 39.5113C56.0416 39.6168 56.1001 39.7425 56.1391 39.8885C56.1796 40.0344 56.1998 40.1963 56.1998 40.374ZM55.5733 40.4196V40.374C55.5733 40.2743 55.5647 40.1826 55.5473 40.0988C55.5314 40.0135 55.5054 39.9391 55.4693 39.8755C55.4346 39.8119 55.3884 39.7628 55.3306 39.7281C55.2742 39.692 55.2056 39.6739 55.1246 39.6739C55.0394 39.6739 54.9664 39.6876 54.9057 39.7151C54.8465 39.7425 54.7981 39.7823 54.7605 39.8343C54.7229 39.8863 54.6947 39.9485 54.676 40.0207C54.6572 40.093 54.6456 40.1746 54.6413 40.2657V40.567C54.6485 40.6739 54.6687 40.77 54.702 40.8553C54.7352 40.9391 54.7865 41.0055 54.8559 41.0547C54.9252 41.1038 55.0163 41.1284 55.129 41.1284C55.2114 41.1284 55.2807 41.1103 55.3371 41.0742C55.3934 41.0366 55.439 40.9853 55.4736 40.9203C55.5098 40.8553 55.5351 40.7801 55.5495 40.6948C55.5654 40.6096 55.5733 40.5178 55.5733 40.4196Z" fill="url(#paint9_linear_406_1288)" shape-rendering="crispEdges"/>
<path d="M57.7561 40.593H57.0213L57.017 40.1833H57.6239C57.7048 40.1833 57.7706 40.1753 57.8212 40.1594C57.8717 40.1421 57.9086 40.1168 57.9317 40.0836C57.9563 40.0489 57.9686 40.007 57.9686 39.9579C57.9686 39.9145 57.9606 39.8777 57.9447 39.8473C57.9303 39.8155 57.9079 39.7895 57.8775 39.7693C57.8472 39.749 57.8089 39.7346 57.7626 39.7259C57.7178 39.7158 57.6651 39.7107 57.6044 39.7107H57.2533V41.5727H56.629V39.2274H57.6044C57.7576 39.2274 57.8949 39.2411 58.0163 39.2686C58.1376 39.2946 58.241 39.3343 58.3262 39.3878C58.4129 39.4412 58.4787 39.5092 58.5235 39.5915C58.5697 39.6725 58.5928 39.7686 58.5928 39.8798C58.5928 39.9521 58.5762 40.02 58.543 40.0836C58.5112 40.1472 58.4635 40.2035 58.3999 40.2527C58.3363 40.3018 58.2576 40.3422 58.1637 40.374C58.0712 40.4044 57.9642 40.4232 57.8428 40.4304L57.7561 40.593ZM57.7561 41.5727H56.8674L57.082 41.0894H57.7561C57.8327 41.0894 57.8956 41.08 57.9447 41.0612C57.9939 41.0424 58.03 41.0149 58.0531 40.9788C58.0777 40.9412 58.09 40.8964 58.09 40.8444C58.09 40.7938 58.0791 40.7498 58.0574 40.7122C58.0358 40.6746 58.0004 40.6457 57.9512 40.6255C57.9035 40.6038 57.8385 40.593 57.7561 40.593H57.1731L57.1774 40.1833H57.8407L57.9924 40.348C58.1572 40.3581 58.293 40.3892 58.3999 40.4412C58.5069 40.4933 58.5856 40.5597 58.6362 40.6407C58.6882 40.7201 58.7142 40.8076 58.7142 40.9029C58.7142 41.0142 58.6933 41.1118 58.6514 41.1956C58.6095 41.2794 58.5473 41.3495 58.465 41.4058C58.384 41.4607 58.2843 41.5026 58.1658 41.5315C58.0473 41.559 57.9108 41.5727 57.7561 41.5727Z" fill="url(#paint10_linear_406_1288)" shape-rendering="crispEdges"/>
<path d="M59.5293 39.9232H60.2099C60.4238 39.9232 60.6058 39.9586 60.7561 40.0294C60.9079 40.0988 61.0235 40.1956 61.1029 40.3198C61.1839 40.4441 61.2243 40.5879 61.2243 40.7512C61.2243 40.8697 61.2012 40.9795 61.155 41.0807C61.1102 41.1804 61.0444 41.2671 60.9577 41.3408C60.871 41.4145 60.7648 41.4716 60.6391 41.512C60.5134 41.5525 60.3703 41.5727 60.2099 41.5727H59.1391V39.2274H59.7655V41.0872H60.2099C60.3038 41.0872 60.379 41.072 60.4353 41.0417C60.4931 41.0099 60.535 40.9687 60.561 40.9181C60.5885 40.8675 60.6022 40.8126 60.6022 40.7534C60.6022 40.6912 60.5885 40.6349 60.561 40.5843C60.535 40.5323 60.4931 40.4904 60.4353 40.4586C60.379 40.4268 60.3038 40.4109 60.2099 40.4109H59.5293V39.9232ZM62.2258 39.2274V41.5727H61.6015V39.2274H62.2258Z" fill="url(#paint11_linear_406_1288)" shape-rendering="crispEdges"/>
<path d="M63.2771 39.2274L63.6651 39.9405L64.0639 39.2274H64.7294L64.0661 40.374L64.7597 41.5727H64.0921L63.6694 40.8184L63.2467 41.5727H62.5791L63.2727 40.374L62.6094 39.2274H63.2771Z" fill="url(#paint12_linear_406_1288)" shape-rendering="crispEdges"/>
<path d="M65.5357 39.2274L65.9237 39.9405L66.3226 39.2274H66.988L66.3247 40.374L67.0184 41.5727H66.3508L65.9281 40.8184L65.5054 41.5727H64.8378L65.5314 40.374L64.8681 39.2274H65.5357Z" fill="url(#paint13_linear_406_1288)" shape-rendering="crispEdges"/>
<path d="M67.7944 39.2274L68.1824 39.9405L68.5812 39.2274H69.2467L68.5834 40.374L69.2771 41.5727H68.6094L68.1867 40.8184L67.764 41.5727H67.0964L67.7901 40.374L67.1268 39.2274H67.7944Z" fill="url(#paint14_linear_406_1288)" shape-rendering="crispEdges"/>
<path d="M70.0531 39.2274L70.4411 39.9405L70.8399 39.2274H71.5054L70.8421 40.374L71.5357 41.5727H70.8681L70.4454 40.8184L70.0227 41.5727H69.3551L70.0487 40.374L69.3854 39.2274H70.0531Z" fill="url(#paint15_linear_406_1288)" shape-rendering="crispEdges"/>
<path d="M72.3117 39.2274L72.6997 39.9405L73.0986 39.2274H73.764L73.1007 40.374L73.7944 41.5727H73.1267L72.7041 40.8184L72.2814 41.5727H71.6137L72.3074 40.374L71.6441 39.2274H72.3117Z" fill="url(#paint16_linear_406_1288)" shape-rendering="crispEdges"/>
<path d="M74.5704 39.2274L74.9584 39.9405L75.3572 39.2274H76.0227L75.3594 40.374L76.053 41.5727H75.3854L74.9627 40.8184L74.54 41.5727H73.8724L74.566 40.374L73.9028 39.2274H74.5704Z" fill="url(#paint17_linear_406_1288)" shape-rendering="crispEdges"/>
<path d="M76.829 39.2274L77.217 39.9405L77.6159 39.2274H78.2813L77.6181 40.374L78.3117 41.5727H77.6441L77.2214 40.8184L76.7987 41.5727H76.1311L76.8247 40.374L76.1614 39.2274H76.829Z" fill="url(#paint18_linear_406_1288)" shape-rendering="crispEdges"/>
</g>
</g>
<defs>
<filter id="filter0_d_406_1288" x="20.0677" y="32.7375" width="67.1224" height="21.9905" filterUnits="userSpaceOnUse" color-interpolation-filters="sRGB">
<feFlood flood-opacity="0" result="BackgroundImageFix"/>
<feColorMatrix in="SourceAlpha" type="matrix" values="0 0 0 0 0 0 0 0 0 0 0 0 0 0 0 0 0 0 127 0" result="hardAlpha"/>
<feOffset dy="3.32947"/>
<feGaussianBlur stdDeviation="4.43929"/>
<feComposite in2="hardAlpha" operator="out"/>
<feColorMatrix type="matrix" values="0 0 0 0 0 0 0 0 0 0 0 0 0 0 0 0 0 0 0.09 0"/>
<feBlend mode="normal" in2="BackgroundImageFix" result="effect1_dropShadow_406_1288"/>
<feBlend mode="normal" in="SourceGraphic" in2="effect1_dropShadow_406_1288" result="shape"/>
</filter>
<linearGradient id="paint0_linear_406_1288" x1="28.9463" y1="42.52" x2="81.2206" y2="42.52" gradientUnits="userSpaceOnUse">
<stop stop-color="#FDFDFD"/>
<stop offset="0.450379" stop-color="#FDFDFD" stop-opacity="0.71"/>
<stop offset="1" stop-color="#080404" stop-opacity="0.74"/>
</linearGradient>
<linearGradient id="paint1_linear_406_1288" x1="28.9463" y1="42.52" x2="81.2206" y2="42.52" gradientUnits="userSpaceOnUse">
<stop stop-color="#FDFDFD"/>
<stop offset="0.450379" stop-color="#FDFDFD" stop-opacity="0.71"/>
<stop offset="1" stop-color="#080404" stop-opacity="0.74"/>
</linearGradient>
<linearGradient id="paint2_linear_406_1288" x1="28.9463" y1="42.52" x2="81.2206" y2="42.52" gradientUnits="userSpaceOnUse">
<stop stop-color="#FDFDFD"/>
<stop offset="0.450379" stop-color="#FDFDFD" stop-opacity="0.71"/>
<stop offset="1" stop-color="#080404" stop-opacity="0.74"/>
</linearGradient>
<linearGradient id="paint3_linear_406_1288" x1="28.9463" y1="42.52" x2="81.2206" y2="42.52" gradientUnits="userSpaceOnUse">
<stop stop-color="#FDFDFD"/>
<stop offset="0.450379" stop-color="#FDFDFD" stop-opacity="0.71"/>
<stop offset="1" stop-color="#080404" stop-opacity="0.74"/>
</linearGradient>
<linearGradient id="paint4_linear_406_1288" x1="28.9463" y1="42.52" x2="81.2206" y2="42.52" gradientUnits="userSpaceOnUse">
<stop stop-color="#FDFDFD"/>
<stop offset="0.450379" stop-color="#FDFDFD" stop-opacity="0.71"/>
<stop offset="1" stop-color="#080404" stop-opacity="0.74"/>
</linearGradient>
<linearGradient id="paint5_linear_406_1288" x1="28.9463" y1="42.52" x2="81.2206" y2="42.52" gradientUnits="userSpaceOnUse">
<stop stop-color="#FDFDFD"/>
<stop offset="0.450379" stop-color="#FDFDFD" stop-opacity="0.71"/>
<stop offset="1" stop-color="#080404" stop-opacity="0.74"/>
</linearGradient>
<linearGradient id="paint6_linear_406_1288" x1="28.9463" y1="42.52" x2="81.2206" y2="42.52" gradientUnits="userSpaceOnUse">
<stop stop-color="#FDFDFD"/>
<stop offset="0.450379" stop-color="#FDFDFD" stop-opacity="0.71"/>
<stop offset="1" stop-color="#080404" stop-opacity="0.74"/>
</linearGradient>
<linearGradient id="paint7_linear_406_1288" x1="28.9463" y1="42.52" x2="81.2206" y2="42.52" gradientUnits="userSpaceOnUse">
<stop stop-color="#FDFDFD"/>
<stop offset="0.450379" stop-color="#FDFDFD" stop-opacity="0.71"/>
<stop offset="1" stop-color="#080404" stop-opacity="0.74"/>
</linearGradient>
<linearGradient id="paint8_linear_406_1288" x1="28.9463" y1="42.52" x2="81.2206" y2="42.52" gradientUnits="userSpaceOnUse">
<stop stop-color="#FDFDFD"/>
<stop offset="0.450379" stop-color="#FDFDFD" stop-opacity="0.71"/>
<stop offset="1" stop-color="#080404" stop-opacity="0.74"/>
</linearGradient>
<linearGradient id="paint9_linear_406_1288" x1="28.9463" y1="42.52" x2="81.2206" y2="42.52" gradientUnits="userSpaceOnUse">
<stop stop-color="#FDFDFD"/>
<stop offset="0.450379" stop-color="#FDFDFD" stop-opacity="0.71"/>
<stop offset="1" stop-color="#080404" stop-opacity="0.74"/>
</linearGradient>
<linearGradient id="paint10_linear_406_1288" x1="28.9463" y1="42.52" x2="81.2206" y2="42.52" gradientUnits="userSpaceOnUse">
<stop stop-color="#FDFDFD"/>
<stop offset="0.450379" stop-color="#FDFDFD" stop-opacity="0.71"/>
<stop offset="1" stop-color="#080404" stop-opacity="0.74"/>
</linearGradient>
<linearGradient id="paint11_linear_406_1288" x1="28.9463" y1="42.52" x2="81.2206" y2="42.52" gradientUnits="userSpaceOnUse">
<stop stop-color="#FDFDFD"/>
<stop offset="0.450379" stop-color="#FDFDFD" stop-opacity="0.71"/>
<stop offset="1" stop-color="#080404" stop-opacity="0.74"/>
</linearGradient>
<linearGradient id="paint12_linear_406_1288" x1="28.9463" y1="42.52" x2="81.2206" y2="42.52" gradientUnits="userSpaceOnUse">
<stop stop-color="#FDFDFD"/>
<stop offset="0.450379" stop-color="#FDFDFD" stop-opacity="0.71"/>
<stop offset="1" stop-color="#080404" stop-opacity="0.74"/>
</linearGradient>
<linearGradient id="paint13_linear_406_1288" x1="28.9463" y1="42.52" x2="81.2206" y2="42.52" gradientUnits="userSpaceOnUse">
<stop stop-color="#FDFDFD"/>
<stop offset="0.450379" stop-color="#FDFDFD" stop-opacity="0.71"/>
<stop offset="1" stop-color="#080404" stop-opacity="0.74"/>
</linearGradient>
<linearGradient id="paint14_linear_406_1288" x1="28.9463" y1="42.52" x2="81.2206" y2="42.52" gradientUnits="userSpaceOnUse">
<stop stop-color="#FDFDFD"/>
<stop offset="0.450379" stop-color="#FDFDFD" stop-opacity="0.71"/>
<stop offset="1" stop-color="#080404" stop-opacity="0.74"/>
</linearGradient>
<linearGradient id="paint15_linear_406_1288" x1="28.9463" y1="42.52" x2="81.2206" y2="42.52" gradientUnits="userSpaceOnUse">
<stop stop-color="#FDFDFD"/>
<stop offset="0.450379" stop-color="#FDFDFD" stop-opacity="0.71"/>
<stop offset="1" stop-color="#080404" stop-opacity="0.74"/>
</linearGradient>
<linearGradient id="paint16_linear_406_1288" x1="28.9463" y1="42.52" x2="81.2206" y2="42.52" gradientUnits="userSpaceOnUse">
<stop stop-color="#FDFDFD"/>
<stop offset="0.450379" stop-color="#FDFDFD" stop-opacity="0.71"/>
<stop offset="1" stop-color="#080404" stop-opacity="0.74"/>
</linearGradient>
<linearGradient id="paint17_linear_406_1288" x1="28.9463" y1="42.52" x2="81.2206" y2="42.52" gradientUnits="userSpaceOnUse">
<stop stop-color="#FDFDFD"/>
<stop offset="0.450379" stop-color="#FDFDFD" stop-opacity="0.71"/>
<stop offset="1" stop-color="#080404" stop-opacity="0.74"/>
</linearGradient>
<linearGradient id="paint18_linear_406_1288" x1="28.9463" y1="42.52" x2="81.2206" y2="42.52" gradientUnits="userSpaceOnUse">
<stop stop-color="#FDFDFD"/>
<stop offset="0.450379" stop-color="#FDFDFD" stop-opacity="0.71"/>
<stop offset="1" stop-color="#080404" stop-opacity="0.74"/>
</linearGradient>
<clipPath id="clip0_406_1288">
<rect width="79" height="46" fill="white" transform="translate(0.900391)"/>
</clipPath>
</defs>
</svg>
