<svg width="72" height="25" viewBox="0 0 72 25" fill="none" xmlns="http://www.w3.org/2000/svg">
<g clip-path="url(#clip0_74_36)">
<path d="M21.4719 2.98835H4.79845L5.9996 -0.280884H22.673L21.4719 2.98835ZM20.8713 4.62297H4.19037L2.98922 7.89221H19.6627L20.8713 4.62297ZM19.0696 9.51196H2.38865L1.1875 12.7812H17.8459L19.0696 9.51196Z" fill="#00AAFF"/>
<path d="M60.3199 19.8103H63.3098C63.7348 19.8591 64.1657 19.8066 64.5646 19.6574C64.9635 19.5083 65.3181 19.2671 65.5971 18.9552C66.0073 18.4392 66.2138 17.8001 66.1801 17.1515C66.2082 16.7388 66.1294 16.3258 65.9506 15.9496C65.7719 15.5733 65.4989 15.2456 65.1561 14.9957C64.6011 14.6466 63.9411 14.4848 63.2799 14.5358H60.3199V19.8103ZM56.3956 22.9937V4.00836H69.2448L68.1161 7.19174H60.3199V11.3955H63.4967C66.0606 11.3955 67.3911 11.9848 68.3105 12.7393C68.9678 13.2989 69.4848 13.9943 69.8227 14.7734C70.1605 15.5524 70.3105 16.395 70.2614 17.2377C70.3119 18.1452 70.1257 19.0505 69.7197 19.8712C69.3137 20.692 68.7008 21.4022 67.9367 21.9373C66.7034 22.7565 65.4102 22.9865 62.7791 22.9865L56.3956 22.9937ZM45.019 22.9937V7.18455H39.3082V4.00836H55.1623L54.0336 7.19174H48.9806V23.0009L45.019 22.9937ZM29.1948 11.6111H31.4372C31.8959 11.6412 32.3566 11.6073 32.8051 11.5105C33.2716 11.3673 33.6736 11.0759 33.9452 10.6842C34.2168 10.2925 34.3419 9.82374 34.3001 9.35471C34.3623 8.88866 34.2445 8.41686 33.9689 8.02878C33.6934 7.6407 33.2793 7.36331 32.8051 7.24923C32.3154 7.13993 31.8123 7.0964 31.3102 7.11988H29.1948V11.6111ZM29.1948 14.8951V19.875H31.9306C32.6845 19.9578 33.4426 19.757 34.0459 19.3145C34.324 19.0668 34.5418 18.7632 34.684 18.4254C34.8261 18.0875 34.889 17.7237 34.8682 17.3599C34.8801 16.7785 34.6966 16.209 34.3449 15.7358C33.7619 15.0173 33.0443 14.8807 31.8184 14.8807L29.1948 14.8951ZM35.5185 12.8902V12.9549C36.1849 13.2015 36.8077 13.5457 37.3648 13.9753C37.9278 14.4245 38.3729 14.995 38.6638 15.6405C38.9547 16.286 39.0833 16.9883 39.0391 17.6904C39.0391 20.2846 37.6039 22.1601 35.2494 22.7206C34.3108 22.9412 33.3441 23.0307 32.3791 22.9865H25.2705V4.00836H31.5942C32.5986 3.97306 33.6035 4.06242 34.5841 4.27424C36.8714 4.86349 38.3739 6.37972 38.3739 8.77265C38.3925 9.34316 38.2902 9.91136 38.073 10.4426C37.8558 10.9738 37.5284 11.457 37.1106 11.8626C36.667 12.2957 36.1386 12.64 35.5558 12.8758L35.5185 12.8902Z" fill="#002882"/>
</g>
<defs>
<clipPath id="clip0_74_36">
<rect width="71" height="25" fill="white" transform="translate(0.270508 0.000854492)"/>
</clipPath>
</defs>
</svg>
